<mxfile host="app.diagrams.net" modified="2022-11-22T17:26:53.099Z" agent="5.0 (Windows NT 10.0; Win64; x64) AppleWebKit/537.36 (KHTML, like Gecko) Chrome/105.0.0.0 Safari/537.36 OPR/91.0.4516.106 (Edition Yx GX)" etag="fZ-EePkfCixWUbpRORs1" version="20.5.3" type="github">
  <diagram id="NR64tkFdpN3CId9jpvZ_" name="Страница 1">
    <mxGraphModel dx="1381" dy="802" grid="1" gridSize="10" guides="1" tooltips="1" connect="1" arrows="1" fold="1" page="1" pageScale="1" pageWidth="827" pageHeight="1169" math="0" shadow="0">
      <root>
        <mxCell id="0" />
        <mxCell id="1" parent="0" />
        <mxCell id="RJjeaWGbv1mn0ucrz16d-11" value="" style="edgeStyle=orthogonalEdgeStyle;rounded=0;orthogonalLoop=1;jettySize=auto;html=1;" edge="1" parent="1" source="RJjeaWGbv1mn0ucrz16d-1" target="RJjeaWGbv1mn0ucrz16d-10">
          <mxGeometry relative="1" as="geometry" />
        </mxCell>
        <mxCell id="RJjeaWGbv1mn0ucrz16d-1" value="start" style="ellipse;whiteSpace=wrap;html=1;" vertex="1" parent="1">
          <mxGeometry x="300" y="170" width="120" height="80" as="geometry" />
        </mxCell>
        <mxCell id="RJjeaWGbv1mn0ucrz16d-4" value="(a,b)*(c,d) = a*c+b*d" style="text;html=1;align=center;verticalAlign=middle;resizable=0;points=[];autosize=1;strokeColor=none;fillColor=none;" vertex="1" parent="1">
          <mxGeometry x="60" y="30" width="130" height="30" as="geometry" />
        </mxCell>
        <mxCell id="RJjeaWGbv1mn0ucrz16d-5" value="(1,8)*(3,2) =1*3+8*2" style="text;html=1;align=center;verticalAlign=middle;resizable=0;points=[];autosize=1;strokeColor=none;fillColor=none;" vertex="1" parent="1">
          <mxGeometry x="60" y="60" width="130" height="30" as="geometry" />
        </mxCell>
        <mxCell id="RJjeaWGbv1mn0ucrz16d-13" value="" style="edgeStyle=orthogonalEdgeStyle;rounded=0;orthogonalLoop=1;jettySize=auto;html=1;" edge="1" parent="1" source="RJjeaWGbv1mn0ucrz16d-10" target="RJjeaWGbv1mn0ucrz16d-12">
          <mxGeometry relative="1" as="geometry" />
        </mxCell>
        <mxCell id="RJjeaWGbv1mn0ucrz16d-10" value="firstVector = [1,8]&lt;br&gt;secondVector = [3,2]&lt;br&gt;scalarProduct = 0&lt;br&gt;index = 0&lt;br&gt;size = 2" style="whiteSpace=wrap;html=1;" vertex="1" parent="1">
          <mxGeometry x="270" y="310" width="180" height="90" as="geometry" />
        </mxCell>
        <mxCell id="RJjeaWGbv1mn0ucrz16d-15" value="" style="edgeStyle=orthogonalEdgeStyle;rounded=0;orthogonalLoop=1;jettySize=auto;html=1;" edge="1" parent="1" source="RJjeaWGbv1mn0ucrz16d-12" target="RJjeaWGbv1mn0ucrz16d-14">
          <mxGeometry relative="1" as="geometry" />
        </mxCell>
        <mxCell id="RJjeaWGbv1mn0ucrz16d-17" value="" style="edgeStyle=orthogonalEdgeStyle;rounded=0;orthogonalLoop=1;jettySize=auto;html=1;" edge="1" parent="1" source="RJjeaWGbv1mn0ucrz16d-12" target="RJjeaWGbv1mn0ucrz16d-16">
          <mxGeometry relative="1" as="geometry" />
        </mxCell>
        <mxCell id="RJjeaWGbv1mn0ucrz16d-12" value="index &amp;lt; size" style="rhombus;whiteSpace=wrap;html=1;" vertex="1" parent="1">
          <mxGeometry x="320" y="470" width="80" height="80" as="geometry" />
        </mxCell>
        <mxCell id="RJjeaWGbv1mn0ucrz16d-24" value="" style="edgeStyle=orthogonalEdgeStyle;rounded=0;orthogonalLoop=1;jettySize=auto;html=1;" edge="1" parent="1" source="RJjeaWGbv1mn0ucrz16d-14" target="RJjeaWGbv1mn0ucrz16d-23">
          <mxGeometry relative="1" as="geometry" />
        </mxCell>
        <mxCell id="RJjeaWGbv1mn0ucrz16d-14" value="print(scalarProduct)" style="shape=document;whiteSpace=wrap;html=1;boundedLbl=1;" vertex="1" parent="1">
          <mxGeometry x="460" y="470" width="120" height="80" as="geometry" />
        </mxCell>
        <mxCell id="RJjeaWGbv1mn0ucrz16d-21" value="" style="edgeStyle=orthogonalEdgeStyle;rounded=0;orthogonalLoop=1;jettySize=auto;html=1;" edge="1" parent="1" source="RJjeaWGbv1mn0ucrz16d-16" target="RJjeaWGbv1mn0ucrz16d-20">
          <mxGeometry relative="1" as="geometry" />
        </mxCell>
        <mxCell id="RJjeaWGbv1mn0ucrz16d-16" value="scalarProduct = scalarProduct + firstVector[index]*secondVector[index]" style="whiteSpace=wrap;html=1;" vertex="1" parent="1">
          <mxGeometry x="220" y="640" width="280" height="60" as="geometry" />
        </mxCell>
        <mxCell id="RJjeaWGbv1mn0ucrz16d-18" value="no" style="text;html=1;align=center;verticalAlign=middle;resizable=0;points=[];autosize=1;strokeColor=none;fillColor=none;" vertex="1" parent="1">
          <mxGeometry x="405" y="480" width="40" height="30" as="geometry" />
        </mxCell>
        <mxCell id="RJjeaWGbv1mn0ucrz16d-19" value="yes" style="text;html=1;align=center;verticalAlign=middle;resizable=0;points=[];autosize=1;strokeColor=none;fillColor=none;" vertex="1" parent="1">
          <mxGeometry x="365" y="580" width="40" height="30" as="geometry" />
        </mxCell>
        <mxCell id="RJjeaWGbv1mn0ucrz16d-22" style="edgeStyle=orthogonalEdgeStyle;rounded=0;orthogonalLoop=1;jettySize=auto;html=1;entryX=0;entryY=0.5;entryDx=0;entryDy=0;" edge="1" parent="1" source="RJjeaWGbv1mn0ucrz16d-20" target="RJjeaWGbv1mn0ucrz16d-12">
          <mxGeometry relative="1" as="geometry">
            <mxPoint x="100" y="520" as="targetPoint" />
            <Array as="points">
              <mxPoint x="70" y="810" />
              <mxPoint x="70" y="510" />
            </Array>
          </mxGeometry>
        </mxCell>
        <mxCell id="RJjeaWGbv1mn0ucrz16d-20" value="index = index+1" style="whiteSpace=wrap;html=1;" vertex="1" parent="1">
          <mxGeometry x="300" y="780" width="120" height="60" as="geometry" />
        </mxCell>
        <mxCell id="RJjeaWGbv1mn0ucrz16d-23" value="stop" style="ellipse;whiteSpace=wrap;html=1;" vertex="1" parent="1">
          <mxGeometry x="660" y="480" width="120" height="60" as="geometry" />
        </mxCell>
      </root>
    </mxGraphModel>
  </diagram>
</mxfile>
